<?xml version="1.0" standalone="no"?><!DOCTYPE svg PUBLIC "-//W3C//DTD SVG 1.1//EN" "http://www.w3.org/Graphics/SVG/1.1/DTD/svg11.dtd"><svg t="1672045822935" class="icon" viewBox="0 0 1024 1024" version="1.1" xmlns="http://www.w3.org/2000/svg" p-id="5871" xmlns:xlink="http://www.w3.org/1999/xlink" width="200" height="200"><path d="M731.428571 879.030857c39.131429 0 77.348571-6.436571 110.884572-17.481143 9.325714 4.608 76.397714 61.659429 91.318857 51.565715 10.24-8.301714-24.246857-69.961143-27.062857-81.005715C977.444571 788.845714 1024 718.884571 1024 640.658286 1024 509.037714 892.635429 402.285714 731.428571 402.285714c-161.206857 0-292.571429 106.788571-292.571428 238.372572 0 131.620571 131.364571 238.372571 292.571428 238.372571z m103.424-363.52c23.296 0 41.947429 18.395429 41.947429 41.398857 0 23.04-18.651429 41.398857-41.947429 41.398857a41.508571 41.508571 0 0 1-41.910857-41.398857c0-23.04 18.651429-41.435429 41.910857-41.435428z m-205.897142 0c23.259429 0 41.910857 18.395429 41.910857 41.398857 0 23.04-18.651429 41.398857-41.947429 41.398857a41.508571 41.508571 0 0 1-41.910857-41.398857c0-23.04 18.651429-41.435429 41.910857-41.435428z" p-id="5872"></path><path d="M741.083429 383.414857c9.289143 0 18.578286 0 26.916571 0.877714C748.507429 229.961143 584.338286 109.714286 384.914286 109.714286 172.507429 109.714286 0 247.003429 0 416.585143c0 100.534857 61.220571 190.244571 154.916571 245.869714-3.730286 13.458286-48.274286 93.330286-35.254857 104.118857 19.456 12.544 107.593143-61.037714 119.625143-66.413714 44.544 14.372571 93.696 22.418286 145.627429 22.418286 18.578286 0 37.12-0.877714 55.661714-3.584a203.081143 203.081143 0 0 1-17.627429-82.541715c0-139.995429 142.848-253.074286 318.171429-253.074285z m-221.659429-130.121143c30.610286 0 55.661714 24.210286 55.661714 53.833143 0.914286 29.622857-24.137143 53.833143-55.661714 53.833143-30.610286 0-55.661714-24.210286-55.661714-53.833143 0-29.622857 25.051429-53.833143 55.661714-53.833143zM249.526857 360.96c-30.610286 0-55.661714-24.210286-55.661714-53.833143 0-29.622857 25.051429-53.833143 55.625143-53.833143 30.610286 0 55.661714 24.210286 55.661714 53.833143 0 29.622857-25.051429 53.833143-55.661714 53.833143z" p-id="5873"></path></svg>
